<svg width="122.88" height="122.88" xmlns="http://www.w3.org/2000/svg" xml:space="preserve" version="1.1">

 <g>
  <title>Layer 1</title>
  <g id="svg_1">
   <path id="svg_2" fill="#86DAF1" clip-rule="evenodd" fill-rule="evenodd" d="m61.44,0c33.93,0 61.44,27.51 61.44,61.44c0,33.93 -27.51,61.44 -61.44,61.44c-33.93,0 -61.44,-27.51 -61.44,-61.44c0,-33.93 27.51,-61.44 61.44,-61.44l0,0l0,0z" class="st0"/>
   <path id="svg_3" fill="#03aa6f" clip-rule="evenodd" fill-rule="evenodd" d="m11.76,93.18c-3.62,-5.49 -6.33,-11.64 -7.92,-18.23l10.82,5.22l0.06,3.23c0,1.19 -2.02,3.71 -2.67,4.67l-0.29,5.11l0,0l0,0zm66.55,-86.68c20.62,6.85 36.09,25 39.07,47.1l-1.95,-0.21c-0.35,1.5 -0.67,1.53 -0.67,3.33c0,1.59 2,2.65 2,6c0,0.9 -2.11,2.69 -2.2,3.01l-3.13,-3.67l0,4.67l-0.47,-0.02l-0.84,-8.62l-1.75,0.55l-2.08,-6.41l-6.85,7.16l-0.08,5.24l-2.24,1.5l-2.38,-13.44l-1.42,1.04l-3.22,-4.35l-4.81,0.14l-1.84,-2.11l-1.89,0.52l-3.71,-4.25l-0.72,0.49l2.3,5.88l2.67,0l0,-1.33l1.33,0c0.96,2.66 2,1.08 2,2.67c0,5.55 -6.85,9.63 -11.34,10.67c0.24,1 0.15,2 1.33,2c2.51,0 1.26,-0.44 4,-0.67c-0.13,5.67 -6.5,12.44 -9.22,16.65l1.22,8.69c0.32,1.89 -3.92,3.88 -5.36,6.01l0.69,3.33l-1.95,0.79c-0.34,3.42 -3.66,7.21 -7.39,7.21l-4,0c0,-4.68 -3.34,-11.37 -3.34,-14.68c0,-2.81 1.33,-3.19 1.33,-6.67c0,-3.22 -3.33,-7.83 -3.33,-8.67l0,-5.34l-2.67,0c-0.4,-1.49 -0.15,-2 -2,-2l-0.67,0c-2.91,0 -2.42,1.33 -5.34,1.33l-2.67,0c-2.41,0 -6.67,-7.72 -6.67,-8.67l0,-8c0,-3.45 3.16,-7.21 5.34,-8.67l0,-3.33l3,-3.05l1.67,-0.28c3.58,0 3.15,-2 5.34,-2l6,0l0,4.67l6.6,2.82l0.62,-2.85c2.99,0.7 3.77,2.03 7.45,2.03l1.33,0c2.53,0 2.67,-3.36 2.67,-6l-5.34,0.53l-2.33,-5.06l-2.31,0.61c0.42,1.81 0.64,1.06 0.64,2.59c0,0.9 -0.74,1 -1.34,1.33l-2.31,-5.86l-4.97,-3.55l-0.66,0.65l4.23,4.45c-0.56,1.6 -0.63,6.21 -2.96,2.98l2.18,-1.05l-5.44,-5.7l-3.26,1.27l-3.22,3.08c-0.34,2.48 -1.01,3.73 -3.61,3.73c-1.73,0 -0.69,-0.45 -3.34,-0.67l0,-6.67l6,0l-1.95,-4.44l-0.72,0.44l0,-1.34l9.75,-4.49c-0.18,-1.4 -0.41,-0.65 -0.41,-2.18c0,-0.09 0.65,-1.32 0.67,-1.34l2.52,1.57l-0.6,-2.87l-3.89,0.8l-0.72,-3.49c3.08,-1.62 9.87,-7.34 12.03,-7.34l2,0c2.11,0 7.75,2.08 8.67,3.33l-5.35,-0.54l3.97,3.27l0.38,-1.4l2.96,-0.81l0.04,-1.85l1.34,0l0,2l7.59,-2.19l0,0l0,0z" class="st1"/>
  </g>
  <g stroke="null">

   <title stroke="null">cash</title>
   <path stroke="null" fill-rule="evenodd" fill="#027f4d" d="m13.5891,74.06356l66.38755,0l0,36.84021l-4.69217,0l0.32736,-27.03151l0,-0.3213a4.32844,4.32844 0 0 0 -4.32237,-4.32844l-57.71249,0l0,-5.15896l0.01212,0zm-8.10521,8.74175l66.38755,0l0,34.45775l-66.38755,0l0,-34.45775z" class="cls-1"/>
   <path stroke="null" fill="#03aa6f" fill-rule="evenodd" d="m61.08672,88.48084a5.01953,5.01953 0 0 0 4.84979,4.91647l0,13.63397a5.15896,5.15896 0 0 0 -5.1529,5.28021l-44.13308,0a5.08015,5.08015 0 0 0 -4.88616,-5.1529l0,-13.63397a5.11047,5.11047 0 0 0 5.16503,-5.04378l44.15733,0z" class="cls-2"/>
   <path stroke="null" fill-rule="evenodd" fill="#048958" d="m29.90258,95.39051a10.16031,10.16031 0 1 1 4.18901,13.74309a10.15425,10.15425 0 0 1 -4.18901,-13.74309z" class="cls-1"/>
   <path stroke="null" fill="#e0fffc" d="m38.95956,107.63623a0.93358,0.93358 0 0 1 -0.94571,-0.94571l0,-0.92146a6.72302,6.72302 0 0 1 -1.61255,-0.29099a8.0749,8.0749 0 0 1 -1.17607,-0.4971a0.97602,0.97602 0 0 1 -0.5456,-0.60622a1.21245,1.21245 0 0 1 0.03637,-0.7699a1.00633,1.00633 0 0 1 0.50317,-0.53348a0.95177,0.95177 0 0 1 0.83659,0.07275a6.33504,6.33504 0 0 0 1.04877,0.41829a5.64394,5.64394 0 0 0 1.64893,0.21218a2.58858,2.58858 0 0 0 1.53375,-0.34555a1.04877,1.04877 0 0 0 0.45467,-0.87296a0.90327,0.90327 0 0 0 -0.31524,-0.70322a2.49158,2.49158 0 0 0 -1.12758,-0.45467l-1.72168,-0.37586q-2.85531,-0.60622 -2.85531,-3.03112a3.07355,3.07355 0 0 1 0.89721,-2.2309a4.14657,4.14657 0 0 1 2.39458,-1.1397l0,-0.98208a0.92752,0.92752 0 0 1 0.26674,-0.66685a0.92146,0.92146 0 0 1 0.67897,-0.2728a0.87296,0.87296 0 0 1 0.65472,0.2728a0.92752,0.92752 0 0 1 0.26674,0.66685l0,0.93965a6.5654,6.5654 0 0 1 1.21245,0.27886a4.35269,4.35269 0 0 1 1.0912,0.53348a0.98208,0.98208 0 0 1 0.46073,0.60622a1.06089,1.06089 0 0 1 -0.07275,0.69716a0.8669,0.8669 0 0 1 -0.50923,0.46073a1.06695,1.06695 0 0 1 -0.85478,-0.11518a5.00741,5.00741 0 0 0 -0.92146,-0.34555a4.58911,4.58911 0 0 0 -1.21245,-0.13943a2.35215,2.35215 0 0 0 -1.42463,0.37586a1.14576,1.14576 0 0 0 -0.51529,0.96996a0.89721,0.89721 0 0 0 0.30311,0.69716a2.49158,2.49158 0 0 0 1.07302,0.44861l1.73986,0.37586a4.24357,4.24357 0 0 1 2.20665,1.07302a2.64314,2.64314 0 0 1 0.70928,1.90354a2.90381,2.90381 0 0 1 -0.89721,2.19453a4.41331,4.41331 0 0 1 -2.34609,1.11545l0,0.98208a0.92146,0.92146 0 0 1 -0.26674,0.66685a0.87902,0.87902 0 0 1 -0.65472,0.27886l-0.04244,0z" class="cls-3"/>
  </g>
 </g>
</svg>